<mxfile host="app.diagrams.net" agent="Mozilla/5.0 (Macintosh; Intel Mac OS X 10_15_7) AppleWebKit/537.36 (KHTML, like Gecko) Chrome/131.0.0.0 Safari/537.36" version="24.7.12">
  <diagram name="第 1 页" id="JwBe4C7Cly6Lb51yg0LG">
    <mxGraphModel dx="1242" dy="785" grid="1" gridSize="10" guides="1" tooltips="1" connect="1" arrows="1" fold="1" page="1" pageScale="1" pageWidth="827" pageHeight="1169" math="0" shadow="0">
      <root>
        <mxCell id="0" />
        <mxCell id="1" parent="0" />
        <mxCell id="-GuVQxklW3Nrgfs2IZJx-1" style="edgeStyle=orthogonalEdgeStyle;rounded=1;orthogonalLoop=1;jettySize=auto;html=1;entryX=0;entryY=0.5;entryDx=0;entryDy=0;flowAnimation=1;strokeColor=#420ADB;" edge="1" parent="1" source="-GuVQxklW3Nrgfs2IZJx-4" target="-GuVQxklW3Nrgfs2IZJx-17">
          <mxGeometry relative="1" as="geometry" />
        </mxCell>
        <mxCell id="-GuVQxklW3Nrgfs2IZJx-2" style="edgeStyle=orthogonalEdgeStyle;rounded=1;orthogonalLoop=1;jettySize=auto;html=1;entryX=0;entryY=0.5;entryDx=0;entryDy=0;strokeColor=#330eec;flowAnimation=1;" edge="1" parent="1" source="-GuVQxklW3Nrgfs2IZJx-4" target="-GuVQxklW3Nrgfs2IZJx-23">
          <mxGeometry relative="1" as="geometry" />
        </mxCell>
        <mxCell id="-GuVQxklW3Nrgfs2IZJx-3" style="edgeStyle=orthogonalEdgeStyle;rounded=1;orthogonalLoop=1;jettySize=auto;html=1;entryX=0;entryY=0.5;entryDx=0;entryDy=0;flowAnimation=1;strokeColor=#420adb;" edge="1" parent="1" source="-GuVQxklW3Nrgfs2IZJx-4" target="-GuVQxklW3Nrgfs2IZJx-31">
          <mxGeometry relative="1" as="geometry" />
        </mxCell>
        <mxCell id="-GuVQxklW3Nrgfs2IZJx-4" value="" style="shape=mxgraph.bpmn.service_task;html=1;outlineConnect=0;fillColor=#1ba1e2;strokeColor=#006EAF;fontColor=#ffffff;" vertex="1" parent="1">
          <mxGeometry x="62" y="1220" width="58" height="56" as="geometry" />
        </mxCell>
        <mxCell id="-GuVQxklW3Nrgfs2IZJx-5" value="权益中心" style="rounded=0;whiteSpace=wrap;html=1;fillColor=#d5e8d4;strokeColor=#82b366;" vertex="1" parent="1">
          <mxGeometry x="1240" y="1271.38" width="120" height="48" as="geometry" />
        </mxCell>
        <mxCell id="-GuVQxklW3Nrgfs2IZJx-6" value="优惠券" style="rounded=0;whiteSpace=wrap;html=1;fillColor=#d5e8d4;strokeColor=#82b366;" vertex="1" parent="1">
          <mxGeometry x="1240" y="1330.88" width="120" height="48" as="geometry" />
        </mxCell>
        <mxCell id="-GuVQxklW3Nrgfs2IZJx-7" value="关注服务" style="rounded=0;whiteSpace=wrap;html=1;fillColor=#d5e8d4;strokeColor=#82b366;" vertex="1" parent="1">
          <mxGeometry x="1240" y="1450.88" width="120" height="48" as="geometry" />
        </mxCell>
        <mxCell id="-GuVQxklW3Nrgfs2IZJx-8" value="服务依赖" style="text;html=1;align=center;verticalAlign=middle;resizable=0;points=[];autosize=1;" vertex="1" parent="1">
          <mxGeometry x="1269" y="1628" width="66" height="26" as="geometry" />
        </mxCell>
        <mxCell id="-GuVQxklW3Nrgfs2IZJx-9" value="Redis" style="rounded=0;whiteSpace=wrap;html=1;fillColor=#fff2cc;strokeColor=#d6b656;" vertex="1" parent="1">
          <mxGeometry x="1056" y="1281.5100000000002" width="120" height="48" as="geometry" />
        </mxCell>
        <mxCell id="-GuVQxklW3Nrgfs2IZJx-10" value="MySQL" style="rounded=0;whiteSpace=wrap;html=1;fillColor=#fff2cc;strokeColor=#d6b656;" vertex="1" parent="1">
          <mxGeometry x="1058" y="1350.0000000000002" width="120" height="48" as="geometry" />
        </mxCell>
        <mxCell id="-GuVQxklW3Nrgfs2IZJx-11" value="" style="rounded=1;whiteSpace=wrap;html=1;fillColor=none;" vertex="1" parent="1">
          <mxGeometry x="1039" y="1252.5" width="154" height="411" as="geometry" />
        </mxCell>
        <mxCell id="-GuVQxklW3Nrgfs2IZJx-12" value="数据存储" style="text;html=1;align=center;verticalAlign=middle;resizable=0;points=[];autosize=1;" vertex="1" parent="1">
          <mxGeometry x="1087" y="1632.0000000000002" width="58" height="18" as="geometry" />
        </mxCell>
        <mxCell id="-GuVQxklW3Nrgfs2IZJx-13" value="hive" style="rounded=0;whiteSpace=wrap;html=1;fillColor=#fff2cc;strokeColor=#d6b656;" vertex="1" parent="1">
          <mxGeometry x="1058" y="1420.0000000000002" width="120" height="48" as="geometry" />
        </mxCell>
        <mxCell id="-GuVQxklW3Nrgfs2IZJx-14" value="" style="rounded=0;whiteSpace=wrap;html=1;fillColor=none;" vertex="1" parent="1">
          <mxGeometry x="260" y="1452" width="648" height="80" as="geometry" />
        </mxCell>
        <mxCell id="-GuVQxklW3Nrgfs2IZJx-15" value="粉丝团服务" style="rounded=0;whiteSpace=wrap;html=1;fillColor=#d5e8d4;strokeColor=#82b366;" vertex="1" parent="1">
          <mxGeometry x="1240" y="1391.88" width="120" height="48" as="geometry" />
        </mxCell>
        <mxCell id="-GuVQxklW3Nrgfs2IZJx-16" value="系统能力" style="text;html=1;align=center;verticalAlign=middle;resizable=0;points=[];autosize=1;" vertex="1" parent="1">
          <mxGeometry x="62" y="1288" width="58" height="18" as="geometry" />
        </mxCell>
        <mxCell id="-GuVQxklW3Nrgfs2IZJx-17" value="" style="rounded=1;whiteSpace=wrap;html=1;fillColor=none;" vertex="1" parent="1">
          <mxGeometry x="261" y="1099.5" width="653" height="85" as="geometry" />
        </mxCell>
        <mxCell id="-GuVQxklW3Nrgfs2IZJx-18" value="创建" style="rounded=0;whiteSpace=wrap;html=1;fillColor=#dae8fc;strokeColor=#6c8ebf;" vertex="1" parent="1">
          <mxGeometry x="288" y="1115.5" width="120" height="48" as="geometry" />
        </mxCell>
        <mxCell id="-GuVQxklW3Nrgfs2IZJx-19" value="编辑" style="rounded=0;whiteSpace=wrap;html=1;fillColor=#dae8fc;strokeColor=#6c8ebf;" vertex="1" parent="1">
          <mxGeometry x="774" y="1115.5" width="120" height="48" as="geometry" />
        </mxCell>
        <mxCell id="-GuVQxklW3Nrgfs2IZJx-20" value="上/下线" style="rounded=0;whiteSpace=wrap;html=1;fillColor=#dae8fc;strokeColor=#6c8ebf;" vertex="1" parent="1">
          <mxGeometry x="615" y="1115.5" width="120" height="48" as="geometry" />
        </mxCell>
        <mxCell id="-GuVQxklW3Nrgfs2IZJx-21" value="查询" style="rounded=0;whiteSpace=wrap;html=1;fillColor=#dae8fc;strokeColor=#6c8ebf;" vertex="1" parent="1">
          <mxGeometry x="451" y="1115.5" width="120" height="48" as="geometry" />
        </mxCell>
        <mxCell id="-GuVQxklW3Nrgfs2IZJx-22" value="B端能力" style="text;html=1;align=center;verticalAlign=middle;resizable=0;points=[];autosize=1;" vertex="1" parent="1">
          <mxGeometry x="200" y="1113" width="54" height="18" as="geometry" />
        </mxCell>
        <mxCell id="-GuVQxklW3Nrgfs2IZJx-23" value="" style="rounded=1;whiteSpace=wrap;html=1;fillColor=none;" vertex="1" parent="1">
          <mxGeometry x="261" y="1205.5" width="649" height="85" as="geometry" />
        </mxCell>
        <mxCell id="-GuVQxklW3Nrgfs2IZJx-24" value="列表查询" style="rounded=0;whiteSpace=wrap;html=1;fillColor=#dae8fc;strokeColor=#6c8ebf;" vertex="1" parent="1">
          <mxGeometry x="288" y="1221.5" width="64" height="48" as="geometry" />
        </mxCell>
        <mxCell id="-GuVQxklW3Nrgfs2IZJx-25" value="分享/回流" style="rounded=0;whiteSpace=wrap;html=1;fillColor=#dae8fc;strokeColor=#6c8ebf;" vertex="1" parent="1">
          <mxGeometry x="629.25" y="1220" width="64.5" height="48" as="geometry" />
        </mxCell>
        <mxCell id="-GuVQxklW3Nrgfs2IZJx-26" value="领取任务" style="rounded=0;whiteSpace=wrap;html=1;fillColor=#dae8fc;strokeColor=#6c8ebf;" vertex="1" parent="1">
          <mxGeometry x="455" y="1221.5" width="64.5" height="48" as="geometry" />
        </mxCell>
        <mxCell id="-GuVQxklW3Nrgfs2IZJx-27" value="进度校验" style="rounded=0;whiteSpace=wrap;html=1;fillColor=#dae8fc;strokeColor=#6c8ebf;" vertex="1" parent="1">
          <mxGeometry x="373" y="1221.5" width="64" height="48" as="geometry" />
        </mxCell>
        <mxCell id="-GuVQxklW3Nrgfs2IZJx-28" value="完成任务" style="rounded=0;whiteSpace=wrap;html=1;fillColor=#dae8fc;strokeColor=#6c8ebf;" vertex="1" parent="1">
          <mxGeometry x="718" y="1221.5" width="64" height="48" as="geometry" />
        </mxCell>
        <mxCell id="-GuVQxklW3Nrgfs2IZJx-29" value="领取奖励" style="rounded=0;whiteSpace=wrap;html=1;fillColor=#ffe6cc;strokeColor=#d79b00;" vertex="1" parent="1">
          <mxGeometry x="808" y="1221.5" width="64" height="48" as="geometry" />
        </mxCell>
        <mxCell id="-GuVQxklW3Nrgfs2IZJx-30" value="C端能力" style="text;html=1;align=center;verticalAlign=middle;resizable=0;points=[];autosize=1;" vertex="1" parent="1">
          <mxGeometry x="197" y="1221.5" width="55" height="18" as="geometry" />
        </mxCell>
        <mxCell id="-GuVQxklW3Nrgfs2IZJx-31" value="" style="rounded=1;whiteSpace=wrap;html=1;fillColor=none;" vertex="1" parent="1">
          <mxGeometry x="259" y="1316" width="652" height="85" as="geometry" />
        </mxCell>
        <mxCell id="-GuVQxklW3Nrgfs2IZJx-32" value="订单消息（转发）" style="rounded=0;whiteSpace=wrap;html=1;fillColor=#f8cecc;strokeColor=#b85450;" vertex="1" parent="1">
          <mxGeometry x="286" y="1332" width="162" height="48" as="geometry" />
        </mxCell>
        <mxCell id="-GuVQxklW3Nrgfs2IZJx-33" value="活动变更消息" style="rounded=0;whiteSpace=wrap;html=1;fillColor=#dae8fc;strokeColor=#6c8ebf;" vertex="1" parent="1">
          <mxGeometry x="506.5" y="1332" width="162" height="48" as="geometry" />
        </mxCell>
        <mxCell id="-GuVQxklW3Nrgfs2IZJx-34" value="用户任务进度变更消息" style="rounded=0;whiteSpace=wrap;html=1;fillColor=#dae8fc;strokeColor=#6c8ebf;" vertex="1" parent="1">
          <mxGeometry x="721" y="1332" width="162" height="48" as="geometry" />
        </mxCell>
        <mxCell id="-GuVQxklW3Nrgfs2IZJx-35" value="消息能力" style="text;html=1;align=center;verticalAlign=middle;resizable=0;points=[];autosize=1;" vertex="1" parent="1">
          <mxGeometry x="194" y="1334" width="58" height="18" as="geometry" />
        </mxCell>
        <mxCell id="-GuVQxklW3Nrgfs2IZJx-36" style="edgeStyle=orthogonalEdgeStyle;rounded=1;orthogonalLoop=1;jettySize=auto;html=1;exitX=0.9;exitY=0.5;exitDx=0;exitDy=0;exitPerimeter=0;entryX=0;entryY=0.5;entryDx=0;entryDy=0;flowAnimation=1;strokeColor=#d50ce4;" edge="1" parent="1" source="-GuVQxklW3Nrgfs2IZJx-37" target="-GuVQxklW3Nrgfs2IZJx-14">
          <mxGeometry relative="1" as="geometry" />
        </mxCell>
        <mxCell id="-GuVQxklW3Nrgfs2IZJx-37" value="" style="shape=actor;whiteSpace=wrap;html=1;fillColor=#76608a;strokeColor=#432D57;fontColor=#ffffff;" vertex="1" parent="1">
          <mxGeometry x="71" y="1462" width="40" height="60" as="geometry" />
        </mxCell>
        <mxCell id="-GuVQxklW3Nrgfs2IZJx-38" value="业务能力" style="text;html=1;align=center;verticalAlign=middle;resizable=0;points=[];autosize=1;" vertex="1" parent="1">
          <mxGeometry x="62" y="1537" width="58" height="18" as="geometry" />
        </mxCell>
        <mxCell id="-GuVQxklW3Nrgfs2IZJx-39" value="" style="rounded=1;whiteSpace=wrap;html=1;fillColor=none;" vertex="1" parent="1">
          <mxGeometry x="1223" y="1251" width="154" height="414" as="geometry" />
        </mxCell>
        <mxCell id="-GuVQxklW3Nrgfs2IZJx-40" value="粉丝团" style="rounded=1;whiteSpace=wrap;html=1;fillColor=#e1d5e7;strokeColor=#9673a6;" vertex="1" parent="1">
          <mxGeometry x="276" y="1467" width="137" height="49" as="geometry" />
        </mxCell>
        <mxCell id="-GuVQxklW3Nrgfs2IZJx-41" value="福利任务" style="rounded=1;whiteSpace=wrap;html=1;fillColor=#e1d5e7;strokeColor=#9673a6;" vertex="1" parent="1">
          <mxGeometry x="443.5" y="1467" width="135" height="49" as="geometry" />
        </mxCell>
        <mxCell id="-GuVQxklW3Nrgfs2IZJx-42" value="用户增长" style="rounded=1;whiteSpace=wrap;html=1;fillColor=#e1d5e7;strokeColor=#9673a6;" vertex="1" parent="1">
          <mxGeometry x="609" y="1467" width="126" height="49" as="geometry" />
        </mxCell>
        <mxCell id="-GuVQxklW3Nrgfs2IZJx-43" value="承载业务" style="text;html=1;align=center;verticalAlign=middle;resizable=0;points=[];autosize=1;" vertex="1" parent="1">
          <mxGeometry x="195.5" y="1456" width="58" height="18" as="geometry" />
        </mxCell>
        <mxCell id="-GuVQxklW3Nrgfs2IZJx-44" value="下单/核销任务" style="rounded=0;whiteSpace=wrap;html=1;fillColor=#b1ddf0;strokeColor=#10739e;" vertex="1" parent="1">
          <mxGeometry x="283" y="1579.88" width="120" height="48" as="geometry" />
        </mxCell>
        <mxCell id="-GuVQxklW3Nrgfs2IZJx-45" value="时长/浏览任务" style="rounded=0;whiteSpace=wrap;html=1;fillColor=#b1ddf0;strokeColor=#10739e;" vertex="1" parent="1">
          <mxGeometry x="283" y="1639.38" width="120" height="48" as="geometry" />
        </mxCell>
        <mxCell id="-GuVQxklW3Nrgfs2IZJx-46" value="签到任务" style="rounded=0;whiteSpace=wrap;html=1;fillColor=#b1ddf0;strokeColor=#10739e;" vertex="1" parent="1">
          <mxGeometry x="283" y="1759.38" width="120" height="48" as="geometry" />
        </mxCell>
        <mxCell id="-GuVQxklW3Nrgfs2IZJx-47" value="支持任务类型" style="text;html=1;align=center;verticalAlign=middle;resizable=0;points=[];autosize=1;" vertex="1" parent="1">
          <mxGeometry x="303.5" y="1826" width="82" height="18" as="geometry" />
        </mxCell>
        <mxCell id="-GuVQxklW3Nrgfs2IZJx-48" value="分享任务" style="rounded=0;whiteSpace=wrap;html=1;fillColor=#b1ddf0;strokeColor=#10739e;" vertex="1" parent="1">
          <mxGeometry x="283" y="1700.38" width="120" height="48" as="geometry" />
        </mxCell>
        <mxCell id="-GuVQxklW3Nrgfs2IZJx-49" value="" style="rounded=1;whiteSpace=wrap;html=1;fillColor=none;" vertex="1" parent="1">
          <mxGeometry x="270.5" y="1567.62" width="145" height="288.38" as="geometry" />
        </mxCell>
        <mxCell id="-GuVQxklW3Nrgfs2IZJx-50" value="无门槛任务" style="rounded=0;whiteSpace=wrap;html=1;fillColor=#b1ddf0;strokeColor=#10739e;" vertex="1" parent="1">
          <mxGeometry x="450.5" y="1579.88" width="120" height="48" as="geometry" />
        </mxCell>
        <mxCell id="-GuVQxklW3Nrgfs2IZJx-51" value="时长任务" style="rounded=0;whiteSpace=wrap;html=1;fillColor=#b1ddf0;strokeColor=#10739e;" vertex="1" parent="1">
          <mxGeometry x="450.5" y="1639.38" width="120" height="48" as="geometry" />
        </mxCell>
        <mxCell id="-GuVQxklW3Nrgfs2IZJx-52" value="新粉/粉丝任务" style="rounded=0;whiteSpace=wrap;html=1;fillColor=#b1ddf0;strokeColor=#10739e;" vertex="1" parent="1">
          <mxGeometry x="450.5" y="1759.38" width="120" height="48" as="geometry" />
        </mxCell>
        <mxCell id="-GuVQxklW3Nrgfs2IZJx-53" value="支持任务类型" style="text;html=1;align=center;verticalAlign=middle;resizable=0;points=[];autosize=1;" vertex="1" parent="1">
          <mxGeometry x="470" y="1826" width="82" height="18" as="geometry" />
        </mxCell>
        <mxCell id="-GuVQxklW3Nrgfs2IZJx-54" value="分享任务" style="rounded=0;whiteSpace=wrap;html=1;fillColor=#b1ddf0;strokeColor=#10739e;" vertex="1" parent="1">
          <mxGeometry x="450.5" y="1700.38" width="120" height="48" as="geometry" />
        </mxCell>
        <mxCell id="-GuVQxklW3Nrgfs2IZJx-55" value="分享任务" style="rounded=0;whiteSpace=wrap;html=1;fillColor=#b1ddf0;strokeColor=#10739e;" vertex="1" parent="1">
          <mxGeometry x="617.5" y="1582.5" width="120" height="48" as="geometry" />
        </mxCell>
        <mxCell id="-GuVQxklW3Nrgfs2IZJx-56" value="支持任务类型" style="text;html=1;align=center;verticalAlign=middle;resizable=0;points=[];autosize=1;" vertex="1" parent="1">
          <mxGeometry x="636.5" y="1820.62" width="82" height="18" as="geometry" />
        </mxCell>
        <mxCell id="-GuVQxklW3Nrgfs2IZJx-57" value="" style="rounded=1;whiteSpace=wrap;html=1;fillColor=none;" vertex="1" parent="1">
          <mxGeometry x="439.5" y="1564" width="143" height="289.38" as="geometry" />
        </mxCell>
        <mxCell id="-GuVQxklW3Nrgfs2IZJx-58" value="" style="rounded=1;whiteSpace=wrap;html=1;fillColor=none;" vertex="1" parent="1">
          <mxGeometry x="607" y="1566.62" width="141" height="289.38" as="geometry" />
        </mxCell>
        <mxCell id="-GuVQxklW3Nrgfs2IZJx-59" value="" style="html=1;shadow=0;dashed=0;align=center;verticalAlign=middle;shape=mxgraph.arrows2.arrow;dy=0.6;dx=40;direction=south;notch=0;gradientColor=#22b5c9;fillColor=#ac4cae;" vertex="1" parent="1">
          <mxGeometry x="413" y="1532" width="26" height="71" as="geometry" />
        </mxCell>
        <mxCell id="-GuVQxklW3Nrgfs2IZJx-60" value="" style="verticalLabelPosition=bottom;verticalAlign=top;html=1;shape=mxgraph.basic.smiley;fillColor=#60a917;strokeColor=#2D7600;fontColor=#ffffff;" vertex="1" parent="1">
          <mxGeometry x="71" y="1929.75" width="73" height="71" as="geometry" />
        </mxCell>
        <mxCell id="-GuVQxklW3Nrgfs2IZJx-61" value="资损对抗" style="text;html=1;align=center;verticalAlign=middle;resizable=0;points=[];autosize=1;strokeColor=none;fillColor=none;" vertex="1" parent="1">
          <mxGeometry x="74.5" y="2011" width="66" height="26" as="geometry" />
        </mxCell>
        <mxCell id="-GuVQxklW3Nrgfs2IZJx-62" style="edgeStyle=orthogonalEdgeStyle;rounded=0;orthogonalLoop=1;jettySize=auto;html=1;exitX=0.5;exitY=1;exitDx=0;exitDy=0;entryX=0.5;entryY=0;entryDx=0;entryDy=0;" edge="1" parent="1" source="-GuVQxklW3Nrgfs2IZJx-63" target="-GuVQxklW3Nrgfs2IZJx-67">
          <mxGeometry relative="1" as="geometry" />
        </mxCell>
        <mxCell id="-GuVQxklW3Nrgfs2IZJx-63" value="先扣后发" style="rounded=1;whiteSpace=wrap;html=1;fillColor=#d5e8d4;strokeColor=#82b366;gradientColor=#97d077;" vertex="1" parent="1">
          <mxGeometry x="312" y="1942" width="189" height="49" as="geometry" />
        </mxCell>
        <mxCell id="-GuVQxklW3Nrgfs2IZJx-64" style="edgeStyle=orthogonalEdgeStyle;rounded=0;orthogonalLoop=1;jettySize=auto;html=1;exitX=0.5;exitY=1;exitDx=0;exitDy=0;entryX=0.5;entryY=0;entryDx=0;entryDy=0;" edge="1" parent="1" source="-GuVQxklW3Nrgfs2IZJx-65" target="-GuVQxklW3Nrgfs2IZJx-69">
          <mxGeometry relative="1" as="geometry" />
        </mxCell>
        <mxCell id="-GuVQxklW3Nrgfs2IZJx-65" value="先发后扣" style="rounded=1;whiteSpace=wrap;html=1;fillColor=#e6d0de;strokeColor=#996185;gradientColor=#d5739d;" vertex="1" parent="1">
          <mxGeometry x="569" y="1942" width="203" height="49" as="geometry" />
        </mxCell>
        <mxCell id="-GuVQxklW3Nrgfs2IZJx-66" value="BCP对账" style="text;html=1;align=center;verticalAlign=middle;resizable=0;points=[];autosize=1;" vertex="1" parent="1">
          <mxGeometry x="206" y="1928" width="67" height="26" as="geometry" />
        </mxCell>
        <mxCell id="-GuVQxklW3Nrgfs2IZJx-67" value="Biglog驱动" style="rounded=0;whiteSpace=wrap;html=1;fillColor=#d5e8d4;gradientColor=#97d077;strokeColor=#82b366;" vertex="1" parent="1">
          <mxGeometry x="312" y="2024" width="185" height="49" as="geometry" />
        </mxCell>
        <mxCell id="-GuVQxklW3Nrgfs2IZJx-68" style="edgeStyle=orthogonalEdgeStyle;rounded=0;orthogonalLoop=1;jettySize=auto;html=1;exitX=0.5;exitY=1;exitDx=0;exitDy=0;" edge="1" parent="1" source="-GuVQxklW3Nrgfs2IZJx-69">
          <mxGeometry relative="1" as="geometry">
            <mxPoint x="670" y="2101" as="targetPoint" />
          </mxGeometry>
        </mxCell>
        <mxCell id="-GuVQxklW3Nrgfs2IZJx-69" value="Mafka驱动" style="rounded=0;whiteSpace=wrap;html=1;fillColor=#e6d0de;gradientColor=#d5739d;strokeColor=#996185;" vertex="1" parent="1">
          <mxGeometry x="569" y="2024" width="201" height="49" as="geometry" />
        </mxCell>
        <mxCell id="-GuVQxklW3Nrgfs2IZJx-70" style="edgeStyle=orthogonalEdgeStyle;rounded=0;orthogonalLoop=1;jettySize=auto;html=1;exitX=0.5;exitY=1;exitDx=0;exitDy=0;entryX=0.5;entryY=0;entryDx=0;entryDy=0;" edge="1" parent="1" source="-GuVQxklW3Nrgfs2IZJx-71" target="-GuVQxklW3Nrgfs2IZJx-72">
          <mxGeometry relative="1" as="geometry" />
        </mxCell>
        <mxCell id="-GuVQxklW3Nrgfs2IZJx-71" value="任务完成性验证" style="rounded=0;whiteSpace=wrap;html=1;fillColor=#fff2cc;gradientColor=#ffd966;strokeColor=#d6b656;" vertex="1" parent="1">
          <mxGeometry x="309.5" y="2102" width="459.5" height="37" as="geometry" />
        </mxCell>
        <mxCell id="-GuVQxklW3Nrgfs2IZJx-72" value="领奖可行性验证" style="rounded=0;whiteSpace=wrap;html=1;fillColor=#fff2cc;gradientColor=#ffd966;strokeColor=#d6b656;" vertex="1" parent="1">
          <mxGeometry x="309.5" y="2155" width="460.5" height="37" as="geometry" />
        </mxCell>
        <mxCell id="-GuVQxklW3Nrgfs2IZJx-73" value="" style="shape=flexArrow;endArrow=classic;html=1;rounded=0;" edge="1" parent="1">
          <mxGeometry width="50" height="50" relative="1" as="geometry">
            <mxPoint x="538" y="1977" as="sourcePoint" />
            <mxPoint x="538" y="2066" as="targetPoint" />
          </mxGeometry>
        </mxCell>
        <mxCell id="-GuVQxklW3Nrgfs2IZJx-74" value="" style="rounded=0;whiteSpace=wrap;html=1;fillColor=none;" vertex="1" parent="1">
          <mxGeometry x="276.5" y="1922" width="651.5" height="311" as="geometry" />
        </mxCell>
        <mxCell id="-GuVQxklW3Nrgfs2IZJx-75" value="ES" style="rounded=0;whiteSpace=wrap;html=1;fillColor=#fff2cc;strokeColor=#d6b656;" vertex="1" parent="1">
          <mxGeometry x="798" y="1955.25" width="96" height="48" as="geometry" />
        </mxCell>
        <mxCell id="-GuVQxklW3Nrgfs2IZJx-76" value="Redis" style="rounded=0;whiteSpace=wrap;html=1;fillColor=#fff2cc;strokeColor=#d6b656;" vertex="1" parent="1">
          <mxGeometry x="798" y="2014.25" width="96" height="48" as="geometry" />
        </mxCell>
        <mxCell id="-GuVQxklW3Nrgfs2IZJx-77" value="Binlog" style="rounded=0;whiteSpace=wrap;html=1;fillColor=#fff2cc;strokeColor=#d6b656;" vertex="1" parent="1">
          <mxGeometry x="798" y="2073.25" width="96" height="48" as="geometry" />
        </mxCell>
        <mxCell id="-GuVQxklW3Nrgfs2IZJx-78" value="Mafka" style="rounded=0;whiteSpace=wrap;html=1;fillColor=#fff2cc;strokeColor=#d6b656;" vertex="1" parent="1">
          <mxGeometry x="798" y="2132.75" width="96" height="48" as="geometry" />
        </mxCell>
        <mxCell id="-GuVQxklW3Nrgfs2IZJx-79" value="" style="rounded=1;whiteSpace=wrap;html=1;fillColor=none;dashed=1;" vertex="1" parent="1">
          <mxGeometry x="786" y="1930.75" width="120" height="293.5" as="geometry" />
        </mxCell>
        <mxCell id="-GuVQxklW3Nrgfs2IZJx-80" value="数据来源" style="text;html=1;align=center;verticalAlign=middle;resizable=0;points=[];autosize=1;strokeColor=none;fillColor=none;" vertex="1" parent="1">
          <mxGeometry x="816" y="2191.25" width="66" height="26" as="geometry" />
        </mxCell>
        <mxCell id="-GuVQxklW3Nrgfs2IZJx-81" style="edgeStyle=orthogonalEdgeStyle;rounded=0;orthogonalLoop=1;jettySize=auto;html=1;exitX=1;exitY=0.5;exitDx=0;exitDy=0;exitPerimeter=0;entryX=-0.008;entryY=0.138;entryDx=0;entryDy=0;entryPerimeter=0;flowAnimation=1;strokeColor=#18f014;" edge="1" parent="1" source="-GuVQxklW3Nrgfs2IZJx-60" target="-GuVQxklW3Nrgfs2IZJx-74">
          <mxGeometry relative="1" as="geometry" />
        </mxCell>
        <mxCell id="-GuVQxklW3Nrgfs2IZJx-82" style="edgeStyle=orthogonalEdgeStyle;rounded=0;orthogonalLoop=1;jettySize=auto;html=1;exitX=0.5;exitY=1;exitDx=0;exitDy=0;entryX=0.206;entryY=-0.027;entryDx=0;entryDy=0;entryPerimeter=0;" edge="1" parent="1" source="-GuVQxklW3Nrgfs2IZJx-67" target="-GuVQxklW3Nrgfs2IZJx-71">
          <mxGeometry relative="1" as="geometry" />
        </mxCell>
        <mxCell id="-GuVQxklW3Nrgfs2IZJx-83" value="" style="rounded=1;whiteSpace=wrap;html=1;fillColor=none;" vertex="1" parent="1">
          <mxGeometry x="774" y="1566.62" width="138" height="289.38" as="geometry" />
        </mxCell>
        <mxCell id="-GuVQxklW3Nrgfs2IZJx-84" value="关注任务" style="rounded=0;whiteSpace=wrap;html=1;fillColor=#b1ddf0;strokeColor=#10739e;" vertex="1" parent="1">
          <mxGeometry x="782" y="1584.62" width="120" height="48" as="geometry" />
        </mxCell>
        <mxCell id="-GuVQxklW3Nrgfs2IZJx-85" value="红包雨" style="rounded=1;whiteSpace=wrap;html=1;fillColor=#e1d5e7;strokeColor=#9673a6;" vertex="1" parent="1">
          <mxGeometry x="771" y="1467.5" width="126" height="49" as="geometry" />
        </mxCell>
        <mxCell id="-GuVQxklW3Nrgfs2IZJx-86" value="支持任务类型" style="text;html=1;align=center;verticalAlign=middle;resizable=0;points=[];autosize=1;strokeColor=none;fillColor=none;" vertex="1" parent="1">
          <mxGeometry x="797" y="1820.62" width="90" height="26" as="geometry" />
        </mxCell>
        <mxCell id="-GuVQxklW3Nrgfs2IZJx-87" value="" style="html=1;shadow=0;dashed=0;align=center;verticalAlign=middle;shape=mxgraph.arrows2.arrow;dy=0.6;dx=40;direction=south;notch=0;gradientColor=#22b5c9;fillColor=#ac4cae;" vertex="1" parent="1">
          <mxGeometry x="581" y="1532" width="26" height="71" as="geometry" />
        </mxCell>
        <mxCell id="-GuVQxklW3Nrgfs2IZJx-88" value="" style="html=1;shadow=0;dashed=0;align=center;verticalAlign=middle;shape=mxgraph.arrows2.arrow;dy=0.6;dx=40;direction=south;notch=0;gradientColor=#22b5c9;fillColor=#ac4cae;" vertex="1" parent="1">
          <mxGeometry x="751" y="1532" width="26" height="71" as="geometry" />
        </mxCell>
        <mxCell id="-GuVQxklW3Nrgfs2IZJx-89" value="时长上报" style="rounded=0;whiteSpace=wrap;html=1;fillColor=#dae8fc;strokeColor=#6c8ebf;" vertex="1" parent="1">
          <mxGeometry x="544" y="1221.5" width="63" height="48" as="geometry" />
        </mxCell>
        <mxCell id="-GuVQxklW3Nrgfs2IZJx-90" value="直播服务" style="rounded=0;whiteSpace=wrap;html=1;fillColor=#d5e8d4;strokeColor=#82b366;" vertex="1" parent="1">
          <mxGeometry x="1240" y="1509" width="120" height="48" as="geometry" />
        </mxCell>
        <mxCell id="-GuVQxklW3Nrgfs2IZJx-91" value="风控服务" style="rounded=0;whiteSpace=wrap;html=1;fillColor=#d5e8d4;strokeColor=#82b366;" vertex="1" parent="1">
          <mxGeometry x="1240" y="1571" width="120" height="48" as="geometry" />
        </mxCell>
        <mxCell id="-GuVQxklW3Nrgfs2IZJx-92" value="ES" style="rounded=0;whiteSpace=wrap;html=1;fillColor=#fff2cc;strokeColor=#d6b656;" vertex="1" parent="1">
          <mxGeometry x="1056" y="1489.0000000000002" width="120" height="48" as="geometry" />
        </mxCell>
        <mxCell id="-GuVQxklW3Nrgfs2IZJx-93" value="Lion" style="rounded=0;whiteSpace=wrap;html=1;fillColor=#fff2cc;strokeColor=#d6b656;" vertex="1" parent="1">
          <mxGeometry x="1056" y="1557.0000000000002" width="120" height="48" as="geometry" />
        </mxCell>
        <mxCell id="-GuVQxklW3Nrgfs2IZJx-94" value="" style="html=1;shadow=0;dashed=1;align=center;verticalAlign=middle;shape=mxgraph.arrows2.twoWayArrow;dy=0.6;dx=35;dashPattern=12 12;fillColor=#fad9d5;strokeColor=#ae4132;" vertex="1" parent="1">
          <mxGeometry x="924" y="1394" width="100" height="60" as="geometry" />
        </mxCell>
        <mxCell id="-GuVQxklW3Nrgfs2IZJx-96" style="edgeStyle=orthogonalEdgeStyle;rounded=0;orthogonalLoop=1;jettySize=auto;html=1;exitX=1;exitY=0.5;exitDx=0;exitDy=0;entryX=0;entryY=0.5;entryDx=0;entryDy=0;fillColor=#d5e8d4;strokeColor=#82b366;flowAnimation=1;" edge="1" parent="1" source="-GuVQxklW3Nrgfs2IZJx-100" target="-GuVQxklW3Nrgfs2IZJx-104">
          <mxGeometry relative="1" as="geometry" />
        </mxCell>
        <mxCell id="-GuVQxklW3Nrgfs2IZJx-97" style="edgeStyle=orthogonalEdgeStyle;rounded=0;orthogonalLoop=1;jettySize=auto;html=1;exitX=0.5;exitY=0;exitDx=0;exitDy=0;entryX=0.5;entryY=0;entryDx=0;entryDy=0;strokeColor=#f90b0b;flowAnimation=1;" edge="1" parent="1" source="-GuVQxklW3Nrgfs2IZJx-100" target="-GuVQxklW3Nrgfs2IZJx-112">
          <mxGeometry relative="1" as="geometry">
            <Array as="points">
              <mxPoint x="354" y="220" />
              <mxPoint x="760" y="220" />
            </Array>
          </mxGeometry>
        </mxCell>
        <mxCell id="-GuVQxklW3Nrgfs2IZJx-98" style="edgeStyle=orthogonalEdgeStyle;rounded=0;orthogonalLoop=1;jettySize=auto;html=1;exitX=0.5;exitY=0;exitDx=0;exitDy=0;entryX=0.5;entryY=1;entryDx=0;entryDy=0;fillColor=#e1d5e7;strokeColor=#9673a6;flowAnimation=1;" edge="1" parent="1" source="-GuVQxklW3Nrgfs2IZJx-100" target="-GuVQxklW3Nrgfs2IZJx-106">
          <mxGeometry relative="1" as="geometry" />
        </mxCell>
        <mxCell id="-GuVQxklW3Nrgfs2IZJx-99" style="edgeStyle=orthogonalEdgeStyle;rounded=0;orthogonalLoop=1;jettySize=auto;html=1;exitX=0.5;exitY=1;exitDx=0;exitDy=0;entryX=0.5;entryY=0;entryDx=0;entryDy=0;fillColor=#a20025;strokeColor=#6F0000;flowAnimation=1;" edge="1" parent="1" source="-GuVQxklW3Nrgfs2IZJx-100" target="-GuVQxklW3Nrgfs2IZJx-110">
          <mxGeometry relative="1" as="geometry" />
        </mxCell>
        <mxCell id="-GuVQxklW3Nrgfs2IZJx-100" value="未开始" style="rounded=0;whiteSpace=wrap;html=1;fillColor=#dae8fc;strokeColor=#6c8ebf;" vertex="1" parent="1">
          <mxGeometry x="294" y="260" width="120" height="60" as="geometry" />
        </mxCell>
        <mxCell id="-GuVQxklW3Nrgfs2IZJx-101" value="新建" style="text;html=1;align=center;verticalAlign=middle;resizable=0;points=[];autosize=1;strokeColor=none;fillColor=none;" vertex="1" parent="1">
          <mxGeometry x="230" y="261" width="50" height="30" as="geometry" />
        </mxCell>
        <mxCell id="-GuVQxklW3Nrgfs2IZJx-102" style="edgeStyle=orthogonalEdgeStyle;rounded=0;orthogonalLoop=1;jettySize=auto;html=1;exitX=1;exitY=0.5;exitDx=0;exitDy=0;entryX=0;entryY=0.5;entryDx=0;entryDy=0;fillColor=#d5e8d4;strokeColor=#82b366;flowAnimation=1;" edge="1" parent="1" source="-GuVQxklW3Nrgfs2IZJx-104" target="-GuVQxklW3Nrgfs2IZJx-112">
          <mxGeometry relative="1" as="geometry" />
        </mxCell>
        <mxCell id="-GuVQxklW3Nrgfs2IZJx-103" style="edgeStyle=orthogonalEdgeStyle;rounded=0;orthogonalLoop=1;jettySize=auto;html=1;exitX=0.5;exitY=1;exitDx=0;exitDy=0;entryX=0.5;entryY=1;entryDx=0;entryDy=0;fillColor=#f8cecc;strokeColor=#b85450;flowAnimation=1;" edge="1" parent="1" source="-GuVQxklW3Nrgfs2IZJx-104" target="-GuVQxklW3Nrgfs2IZJx-112">
          <mxGeometry relative="1" as="geometry">
            <Array as="points">
              <mxPoint x="560" y="370" />
              <mxPoint x="760" y="370" />
            </Array>
          </mxGeometry>
        </mxCell>
        <mxCell id="-GuVQxklW3Nrgfs2IZJx-104" value="进行中" style="rounded=0;whiteSpace=wrap;html=1;fillColor=#d5e8d4;strokeColor=#82b366;" vertex="1" parent="1">
          <mxGeometry x="500" y="260" width="120" height="60" as="geometry" />
        </mxCell>
        <mxCell id="-GuVQxklW3Nrgfs2IZJx-105" style="edgeStyle=orthogonalEdgeStyle;rounded=0;orthogonalLoop=1;jettySize=auto;html=1;exitX=1;exitY=0.5;exitDx=0;exitDy=0;dashed=1;dashPattern=12 12;flowAnimation=1;fillColor=#d5e8d4;strokeColor=#82b366;" edge="1" parent="1" source="-GuVQxklW3Nrgfs2IZJx-106" target="-GuVQxklW3Nrgfs2IZJx-104">
          <mxGeometry relative="1" as="geometry" />
        </mxCell>
        <mxCell id="-GuVQxklW3Nrgfs2IZJx-106" value="已下线" style="rounded=0;whiteSpace=wrap;html=1;fillColor=#f8cecc;strokeColor=#b85450;" vertex="1" parent="1">
          <mxGeometry x="294" y="120" width="120" height="60" as="geometry" />
        </mxCell>
        <mxCell id="-GuVQxklW3Nrgfs2IZJx-107" value="下线" style="text;html=1;align=center;verticalAlign=middle;resizable=0;points=[];autosize=1;strokeColor=none;fillColor=none;" vertex="1" parent="1">
          <mxGeometry x="310" y="190" width="50" height="30" as="geometry" />
        </mxCell>
        <mxCell id="-GuVQxklW3Nrgfs2IZJx-108" value="上线" style="text;html=1;align=center;verticalAlign=middle;resizable=0;points=[];autosize=1;strokeColor=none;fillColor=none;" vertex="1" parent="1">
          <mxGeometry x="460" y="120" width="50" height="30" as="geometry" />
        </mxCell>
        <mxCell id="-GuVQxklW3Nrgfs2IZJx-109" value="isStartTime" style="text;html=1;align=center;verticalAlign=middle;resizable=0;points=[];autosize=1;strokeColor=none;fillColor=none;" vertex="1" parent="1">
          <mxGeometry x="415" y="261" width="80" height="30" as="geometry" />
        </mxCell>
        <mxCell id="-GuVQxklW3Nrgfs2IZJx-110" value="已删除" style="rounded=0;whiteSpace=wrap;html=1;fillColor=#f8cecc;strokeColor=#b85450;" vertex="1" parent="1">
          <mxGeometry x="294" y="370" width="120" height="60" as="geometry" />
        </mxCell>
        <mxCell id="-GuVQxklW3Nrgfs2IZJx-111" value="删除" style="text;html=1;align=center;verticalAlign=middle;resizable=0;points=[];autosize=1;strokeColor=none;fillColor=none;" vertex="1" parent="1">
          <mxGeometry x="310" y="340" width="50" height="30" as="geometry" />
        </mxCell>
        <mxCell id="-GuVQxklW3Nrgfs2IZJx-112" value="已结束" style="rounded=0;whiteSpace=wrap;html=1;fillColor=#f8cecc;strokeColor=#b85450;" vertex="1" parent="1">
          <mxGeometry x="700" y="260" width="120" height="60" as="geometry" />
        </mxCell>
        <mxCell id="-GuVQxklW3Nrgfs2IZJx-113" value="isEndTime" style="text;html=1;align=center;verticalAlign=middle;resizable=0;points=[];autosize=1;strokeColor=none;fillColor=none;" vertex="1" parent="1">
          <mxGeometry x="620" y="260" width="80" height="30" as="geometry" />
        </mxCell>
        <mxCell id="-GuVQxklW3Nrgfs2IZJx-114" value="关播" style="text;html=1;align=center;verticalAlign=middle;resizable=0;points=[];autosize=1;strokeColor=none;fillColor=none;" vertex="1" parent="1">
          <mxGeometry x="450" y="190" width="50" height="30" as="geometry" />
        </mxCell>
        <mxCell id="-GuVQxklW3Nrgfs2IZJx-115" value="关播" style="text;html=1;align=center;verticalAlign=middle;resizable=0;points=[];autosize=1;strokeColor=none;fillColor=none;" vertex="1" parent="1">
          <mxGeometry x="635" y="340" width="50" height="30" as="geometry" />
        </mxCell>
        <mxCell id="-GuVQxklW3Nrgfs2IZJx-116" value="" style="endArrow=classic;html=1;rounded=0;entryX=0;entryY=0.5;entryDx=0;entryDy=0;" edge="1" parent="1" target="-GuVQxklW3Nrgfs2IZJx-100">
          <mxGeometry width="50" height="50" relative="1" as="geometry">
            <mxPoint x="210" y="290" as="sourcePoint" />
            <mxPoint x="440" y="390" as="targetPoint" />
          </mxGeometry>
        </mxCell>
        <mxCell id="-GuVQxklW3Nrgfs2IZJx-117" value="未开始" style="rounded=0;whiteSpace=wrap;html=1;fillColor=#dae8fc;strokeColor=#6c8ebf;" vertex="1" parent="1">
          <mxGeometry x="280" y="590" width="120" height="60" as="geometry" />
        </mxCell>
        <mxCell id="-GuVQxklW3Nrgfs2IZJx-118" value="任务进行中" style="rounded=0;whiteSpace=wrap;html=1;fillColor=#d5e8d4;strokeColor=#82b366;" vertex="1" parent="1">
          <mxGeometry x="415" y="650" width="120" height="60" as="geometry" />
        </mxCell>
        <mxCell id="-GuVQxklW3Nrgfs2IZJx-119" value="完成任务未发放奖励" style="rounded=0;whiteSpace=wrap;html=1;fillColor=#fff2cc;strokeColor=#d6b656;" vertex="1" parent="1">
          <mxGeometry x="550" y="710" width="120" height="60" as="geometry" />
        </mxCell>
        <mxCell id="-GuVQxklW3Nrgfs2IZJx-120" value="完成任务已发放奖励" style="rounded=0;whiteSpace=wrap;html=1;fillColor=#f8cecc;strokeColor=#b85450;" vertex="1" parent="1">
          <mxGeometry x="690" y="770" width="120" height="60" as="geometry" />
        </mxCell>
        <mxCell id="-GuVQxklW3Nrgfs2IZJx-121" value="任务达到上限" style="rounded=0;whiteSpace=wrap;html=1;fillColor=#dae8fc;strokeColor=#6c8ebf;" vertex="1" parent="1">
          <mxGeometry x="810" y="632.5" width="120" height="60" as="geometry" />
        </mxCell>
        <mxCell id="-GuVQxklW3Nrgfs2IZJx-122" value="批次库存限制" style="rounded=0;whiteSpace=wrap;html=1;fillColor=#dae8fc;strokeColor=#6c8ebf;" vertex="1" parent="1">
          <mxGeometry x="810" y="547.5" width="120" height="60" as="geometry" />
        </mxCell>
        <mxCell id="-GuVQxklW3Nrgfs2IZJx-123" value="继续完成" style="rounded=0;whiteSpace=wrap;html=1;fillColor=#e1d5e7;strokeColor=#9673a6;" vertex="1" parent="1">
          <mxGeometry x="690" y="850" width="120" height="60" as="geometry" />
        </mxCell>
        <mxCell id="-GuVQxklW3Nrgfs2IZJx-124" value="" style="endArrow=classic;html=1;rounded=0;entryX=0;entryY=0.5;entryDx=0;entryDy=0;" edge="1" parent="1" target="-GuVQxklW3Nrgfs2IZJx-118">
          <mxGeometry width="50" height="50" relative="1" as="geometry">
            <mxPoint x="280" y="680" as="sourcePoint" />
            <mxPoint x="740" y="590" as="targetPoint" />
          </mxGeometry>
        </mxCell>
        <mxCell id="-GuVQxklW3Nrgfs2IZJx-125" value="接受任务" style="text;html=1;align=center;verticalAlign=middle;resizable=0;points=[];autosize=1;strokeColor=none;fillColor=none;" vertex="1" parent="1">
          <mxGeometry x="305" y="680" width="70" height="30" as="geometry" />
        </mxCell>
        <mxCell id="-GuVQxklW3Nrgfs2IZJx-126" value="" style="endArrow=classic;html=1;rounded=0;entryX=0;entryY=0.5;entryDx=0;entryDy=0;" edge="1" parent="1">
          <mxGeometry width="50" height="50" relative="1" as="geometry">
            <mxPoint x="414" y="730" as="sourcePoint" />
            <mxPoint x="549" y="730" as="targetPoint" />
          </mxGeometry>
        </mxCell>
        <mxCell id="-GuVQxklW3Nrgfs2IZJx-127" value="任务完成" style="text;html=1;align=center;verticalAlign=middle;resizable=0;points=[];autosize=1;strokeColor=none;fillColor=none;" vertex="1" parent="1">
          <mxGeometry x="439" y="730" width="70" height="30" as="geometry" />
        </mxCell>
        <mxCell id="-GuVQxklW3Nrgfs2IZJx-128" value="" style="endArrow=classic;html=1;rounded=0;entryX=0;entryY=0.5;entryDx=0;entryDy=0;" edge="1" parent="1">
          <mxGeometry width="50" height="50" relative="1" as="geometry">
            <mxPoint x="555" y="800" as="sourcePoint" />
            <mxPoint x="690" y="800" as="targetPoint" />
          </mxGeometry>
        </mxCell>
        <mxCell id="-GuVQxklW3Nrgfs2IZJx-129" value="领奖" style="text;html=1;align=center;verticalAlign=middle;resizable=0;points=[];autosize=1;strokeColor=none;fillColor=none;" vertex="1" parent="1">
          <mxGeometry x="590" y="800" width="50" height="30" as="geometry" />
        </mxCell>
        <mxCell id="-GuVQxklW3Nrgfs2IZJx-130" value="" style="endArrow=classic;html=1;rounded=0;entryX=0;entryY=0.5;entryDx=0;entryDy=0;" edge="1" parent="1">
          <mxGeometry width="50" height="50" relative="1" as="geometry">
            <mxPoint x="555" y="880" as="sourcePoint" />
            <mxPoint x="690" y="880" as="targetPoint" />
          </mxGeometry>
        </mxCell>
        <mxCell id="-GuVQxklW3Nrgfs2IZJx-131" value="领奖" style="text;html=1;align=center;verticalAlign=middle;resizable=0;points=[];autosize=1;strokeColor=none;fillColor=none;" vertex="1" parent="1">
          <mxGeometry x="590" y="880" width="50" height="30" as="geometry" />
        </mxCell>
      </root>
    </mxGraphModel>
  </diagram>
</mxfile>
